<?xml version="1.0" standalone="no"?>
<!DOCTYPE svg PUBLIC "-//W3C//DTD SVG 20010904//EN"
 "http://www.w3.org/TR/2001/REC-SVG-20010904/DTD/svg10.dtd">
<svg version="1.0" xmlns="http://www.w3.org/2000/svg"
 width="512.000000pt" height="512.000000pt" viewBox="0 0 512.000000 512.000000"
 preserveAspectRatio="xMidYMid meet">
<metadata>
Created by potrace 1.14, written by Peter Selinger 2001-2017
</metadata>
<g transform="translate(0.000000,512.000000) scale(0.100000,-0.100000)"
fill="#000000" stroke="none">
<path d="M3676 4387 c-14 -18 -55 -96 -92 -173 -185 -391 -200 -417 -269 -478
-38 -34 -87 -66 -122 -79 -256 -100 -468 -359 -577 -703 -19 -60 -60 -208 -91
-328 -116 -454 -166 -598 -264 -759 -129 -213 -260 -297 -465 -297 -107 0
-164 15 -274 70 -159 81 -341 244 -450 403 -25 38 -48 64 -50 59 -4 -13 59
-135 75 -145 7 -4 20 -22 29 -39 19 -37 100 -120 135 -138 13 -7 37 -28 52
-46 16 -19 35 -34 42 -34 16 0 85 -57 85 -70 0 -4 -15 -4 -32 0 -67 15 -332
115 -423 158 -238 115 -570 84 -781 -74 -61 -45 -116 -102 -105 -108 6 -4 61
-9 123 -11 128 -5 203 -16 235 -33 12 -7 34 -12 50 -12 15 0 42 -9 58 -20 17
-11 42 -20 56 -20 14 0 43 -13 64 -30 21 -16 46 -30 55 -30 9 0 34 -14 55 -30
21 -16 46 -30 55 -30 9 0 34 -11 54 -25 20 -14 49 -28 64 -31 15 -4 41 -15 58
-25 17 -10 62 -28 100 -40 38 -12 94 -34 125 -50 37 -18 85 -32 136 -38 43 -5
92 -15 108 -22 46 -18 339 -20 388 -3 21 8 69 19 105 25 48 8 87 23 137 54 39
24 88 50 110 59 64 27 219 187 262 271 50 99 104 185 113 180 4 -2 10 -27 13
-54 8 -65 55 -168 101 -219 23 -25 61 -51 101 -68 56 -24 68 -34 85 -71 11
-24 20 -46 20 -51 0 -4 17 -26 38 -48 20 -23 50 -58 66 -78 16 -21 43 -44 60
-51 17 -7 42 -25 55 -39 14 -15 35 -26 50 -26 14 0 41 -9 59 -20 18 -11 47
-20 65 -20 17 0 45 -7 61 -15 15 -8 43 -15 61 -15 19 0 44 -4 57 -9 35 -13
251 13 293 36 11 6 43 13 72 17 29 4 71 15 95 26 24 11 55 20 70 20 14 0 50
11 80 25 29 14 65 25 80 25 15 0 48 11 74 25 29 16 55 23 70 19 13 -3 46 2 74
11 29 9 64 15 79 12 15 -3 69 5 122 20 52 14 122 29 157 33 39 5 71 15 83 26
12 11 46 33 77 49 56 30 111 88 67 71 -11 -4 -39 -10 -63 -12 -90 -9 -845
-172 -871 -188 -4 -3 -80 -23 -170 -46 -208 -53 -272 -55 -358 -12 -33 17 -78
49 -99 72 -44 46 -90 129 -100 178 -5 28 -3 36 17 50 13 9 31 15 40 14 9 -2
22 4 29 13 7 8 25 15 39 15 15 0 42 11 61 25 18 13 49 30 69 36 20 6 50 24 66
39 17 15 48 37 70 48 22 11 55 36 73 56 18 20 38 36 44 36 6 0 20 7 29 16 10
9 30 18 44 20 14 1 32 7 39 14 8 6 68 12 146 14 72 2 133 6 136 9 8 7 -105
100 -171 140 -66 40 -192 77 -264 77 -94 0 -226 -47 -421 -149 -19 -10 -45
-22 -57 -26 -22 -6 -23 -4 -23 53 0 88 18 259 45 422 54 326 79 628 76 905 -5
414 -7 382 27 471 65 173 205 425 313 565 l58 76 -29 46 c-27 43 -55 67 -79
67 -5 0 -21 -15 -35 -33z m-919 -2309 c-2 -13 -4 -5 -4 17 -1 22 1 32 4 23 2
-10 2 -28 0 -40z m1746 -855 c-7 -2 -19 -2 -25 0 -7 3 -2 5 12 5 14 0 19 -2
13 -5z m-76 -9 c-3 -3 -12 -4 -19 -1 -8 3 -5 6 6 6 11 1 17 -2 13 -5z m-670
-200 c-3 -3 -12 -4 -19 -1 -8 3 -5 6 6 6 11 1 17 -2 13 -5z"/>
</g>
</svg>
